<svg xmlns="http://www.w3.org/2000/svg" viewBox="0 0 23 30">
  <defs>
    <style>
      .cls-1 {
        fill: none;
      }

      .cls-2, .cls-4 {
        fill: #0ccbba;
      }

      .cls-3, .cls-4 {
        stroke: none;
      }
    </style>
  </defs>
  <g id="Group_19" data-name="Group 19" transform="translate(-55.5 -306.5)">
    <g id="Path_67" data-name="Path 67" class="cls-1" transform="translate(55.5 336.5) rotate(-90)">
      <path class="cls-3" d="M5,0H25a5,5,0,0,1,5,5V18a5,5,0,0,1-5,5H5a5,5,0,0,1-5-5V5A5,5,0,0,1,5,0Z"/>
      <path class="cls-4" d="M 25 21 C 26.65420913696289 21 28 19.65420913696289 28 18 L 28 5 C 28 3.345789909362793 26.65420913696289 2 25 2 L 5 2 C 3.345789909362793 2 2 3.345789909362793 2 5 L 2 18 C 2 19.65420913696289 3.345789909362793 21 5 21 L 25 21 M 25 23 L 5 23 C 2.238579988479614 23 -1.77635683940025e-15 20.76141929626465 -1.77635683940025e-15 18 L -1.77635683940025e-15 5 C -1.77635683940025e-15 2.238579988479614 2.238579988479614 -1.77635683940025e-15 5 -1.77635683940025e-15 L 25 -1.77635683940025e-15 C 27.76141929626465 -1.77635683940025e-15 30 2.238579988479614 30 5 L 30 18 C 30 20.76141929626465 27.76141929626465 23 25 23 Z"/>
    </g>
    <path id="Path_221" data-name="Path 221" class="cls-2" d="M3.3-9.048a3.225,3.225,0,0,0-1.95.871A2.5,2.5,0,0,0,.611-6.331c.013.819.325,2.093,2.34,2.639L4-3.341a1.562,1.562,0,0,1,.871.546A.787.787,0,0,1,4.9-2.6c0,.52-.494.806-1.1.806-.715,0-1.066-.351-1.105-.871H.494A2.758,2.758,0,0,0,3.3.091V1.638h1V.078A3.578,3.578,0,0,0,6.292-.715a2.324,2.324,0,0,0,.819-1.9c0-1.313-.832-2.223-2.483-2.73L3.6-5.668c-.559-.169-.832-.4-.832-.728,0-.429.364-.715.949-.715.624,0,.936.273.936.832H6.825A2.685,2.685,0,0,0,4.3-9.035v-1.43h-1Z" transform="translate(63 327)"/>
  </g>
</svg>
