<svg xmlns="http://www.w3.org/2000/svg" viewBox="0 0 31.048 36.18">
  <defs>
    <style>
      .cls-1, .cls-3 {
        fill: #00ccba;
      }

      .cls-1 {
        stroke: #fff;
      }

      .cls-1, .cls-2 {
        stroke-miterlimit: 10;
      }

      .cls-2 {
        fill: rgba(255,255,255,0);
        stroke: #00ccba;
        stroke-width: 0.992px;
      }
    </style>
  </defs>
  <g id="Group_237" data-name="Group 237" transform="translate(-2.202 0.014)">
    <g id="Group_233" data-name="Group 233" transform="translate(2.711 0.501)">
      <g id="Group_223" data-name="Group 223">
        <path id="Path_197" data-name="Path 197" class="cls-1" d="M22.635,2.169,20.355.964C15.287-1.717,8.886,7.928,6.624,12.2S-.009,27.2,5.06,29.881L15.1,35.189c5.068,2.68,11.47-6.965,13.731-11.24S35.459,8.954,30.39,6.272L22.51,2.115M9.551,13.751c3.951-7.469,8.32-10.586,9.5-10.332a2.169,2.169,0,0,1,.35.953C13.618,8.439,7.449,20.107,7.343,27.178a2.223,2.223,0,0,1-.985.246C5.5,26.6,5.573,21.272,9.551,13.751Zm9.441-4.624a38.058,38.058,0,0,1-7.949,15.03A38.269,38.269,0,0,1,18.992,9.127Zm10.094-.409h0c.852.732.851,6.052-3.184,13.679-3.929,7.429-8.356,10.645-9.515,10.331l-6.4-3.386c6.125-3.686,13.089-16.785,12.7-24.01Z" transform="translate(-2.711 -0.501)"/>
      </g>
      <rect id="Rectangle_123" data-name="Rectangle 123" class="cls-2" width="14.221" height="10.545" transform="translate(11.184 23.356) rotate(-62.128)"/>
    </g>
    <g id="Group_236" data-name="Group 236" transform="translate(19.022 16.821)">
      <path id="Path_207" data-name="Path 207" class="cls-3" d="M15.312,14.331a.635.635,0,0,0-.319.653.33.33,0,0,0,.5.243,2.279,2.279,0,0,1,3.434,1.68.349.349,0,0,0,.182.257.355.355,0,0,0,.315-.014.635.635,0,0,0,.319-.653,2.939,2.939,0,0,0-4.429-2.166Zm0,0" transform="translate(-14.638 -12.023)"/>
      <path id="Path_208" data-name="Path 208" class="cls-3" d="M15.562,15.546a.635.635,0,0,0-.319.653.33.33,0,0,0,.5.243,1.016,1.016,0,0,1,1.534.751.349.349,0,0,0,.182.257.355.355,0,0,0,.315-.014.634.634,0,0,0,.319-.651,1.678,1.678,0,0,0-2.528-1.238Zm0,0" transform="translate(-14.549 -11.528)"/>
      <g id="Group_235" data-name="Group 235">
        <g id="Group_238" data-name="Group 238">
          <path id="Path_209" data-name="Path 209" class="cls-3" d="M21.415,16.2a4.222,4.222,0,0,0-6.357-3.109.635.635,0,0,0-.319.653.33.33,0,0,0,.5.243A3.558,3.558,0,0,1,20.6,16.611a.349.349,0,0,0,.182.257.355.355,0,0,0,.315-.014.632.632,0,0,0,.319-.651Zm0,0" transform="translate(-14.729 -12.526)"/>
        </g>
      </g>
    </g>
  </g>
</svg>
