<svg xmlns="http://www.w3.org/2000/svg" viewBox="0 0 46 52.071">
  <defs>
    <style>
      .cls-1 {
        fill: none;
      }

      .cls-2 {
        fill: #00d4bf;
      }

      .cls-3, .cls-4 {
        fill: none;
      }

      .cls-3 {
        stroke: #FFF;
        stroke-width: 7px;
      }

      .cls-5, .cls-7 {
        fill: #0ccbba;
      }

      .cls-6, .cls-7 {
        stroke: none;
      }
    </style>
  </defs>
  <g id="Group_239" data-name="Group 239" transform="translate(-53.5 -580.5)">
    <g id="Group_221" data-name="Group 221" transform="translate(53.5 580.5)">
      <g id="Group_20" data-name="Group 20">
        <g id="Path_67" data-name="Path 67" class="cls-1" transform="translate(0 45.535) rotate(-90)">
          <path class="cls-6" d="M7.589,0H37.946a7.589,7.589,0,0,1,7.589,7.589V27.321a7.589,7.589,0,0,1-7.589,7.589H7.589A7.589,7.589,0,0,1,0,27.321V7.589A7.589,7.589,0,0,1,7.589,0Z"/>
          <path class="cls-7" d="M 37.94593811035156 31.91025924682617 C 40.47641754150391 31.91025924682617 42.53511810302734 29.85155868530273 42.53511810302734 27.32106971740723 L 42.53511810302734 7.589189529418945 C 42.53511810302734 5.058699607849121 40.47641754150391 2.999999523162842 37.94593811035156 2.999999523162842 L 7.589189052581787 2.999999523162842 C 5.058699131011963 2.999999523162842 2.999999046325684 5.058699607849121 2.999999046325684 7.589189529418945 L 2.999999046325684 27.32106971740723 C 2.999999046325684 29.85155868530273 5.058699131011963 31.91025924682617 7.589189052581787 31.91025924682617 L 37.94593811035156 31.91025924682617 M 37.94593811035156 34.91025924682617 L 7.589189052581787 34.91025924682617 C 3.397799015045166 34.91025924682617 -9.484863312536618e-07 31.51247024536133 -9.484863312536618e-07 27.32106971740723 L -9.484863312536618e-07 7.589189529418945 C -9.484863312536618e-07 3.397799730300903 3.397799015045166 -3.765869109884079e-07 7.589189052581787 -3.765869109884079e-07 L 37.94593811035156 -3.765869109884079e-07 C 42.1373291015625 -3.765869109884079e-07 45.53511810302734 3.397799730300903 45.53511810302734 7.589189529418945 L 45.53511810302734 27.32106971740723 C 45.53511810302734 31.51247024536133 42.1373291015625 34.91025924682617 37.94593811035156 34.91025924682617 Z"/>
        </g>
      </g>
    </g>
    <rect id="Rectangle_120" data-name="Rectangle 120" class="cls-2" width="12.143" height="3.036" transform="translate(61.848 588.848)"/>
    <g id="football" transform="translate(71.713 604.785)">
      <path id="Path_195" data-name="Path 195" class="cls-3" d="M12.143,0A12.143,12.143,0,1,0,24.287,12.143,12.157,12.157,0,0,0,12.143,0Zm.627,3.537,2.462-1.775a10.894,10.894,0,0,1,5.777,4.17l-.944,2.928L16.714,9.944,12.77,7.093ZM9.028,1.761l2.433,1.776V7.094L7.583,9.918,4.171,8.807l-.928-2.85A10.87,10.87,0,0,1,9.028,1.761ZM3.455,18.61a10.779,10.779,0,0,1-2.146-6.466q0-.149,0-.3l2.467-1.794,3.488,1.133,1.445,4.441L6.539,18.619ZM15.631,22.4a10.84,10.84,0,0,1-7.076-.035L7.59,19.4l2.182-3h4.621L16.6,19.432Zm2.036-3.725-2.131-2.934L17,11.231,20.473,10.1l2.5,1.822c0,.072,0,.145,0,.218a10.779,10.779,0,0,1-2.2,6.539Z" transform="translate(0 0)"/>
      <rect id="Rectangle_121" data-name="Rectangle 121" class="cls-4" width="7.589" height="6.071" transform="translate(12.902 3.795)"/>
      <rect id="Rectangle_122" data-name="Rectangle 122" class="cls-4" width="4.554" height="4.554" transform="translate(9.866 17.456)"/>
      <path id="Path_196" data-name="Path 196" class="cls-5" d="M12.143,0A12.143,12.143,0,1,0,24.287,12.143,12.157,12.157,0,0,0,12.143,0Zm.627,3.537,2.462-1.775a10.894,10.894,0,0,1,5.777,4.17l-.944,2.928L16.714,9.944,12.77,7.093ZM9.028,1.761l2.433,1.776V7.094L7.583,9.918,4.171,8.807l-.928-2.85A10.87,10.87,0,0,1,9.028,1.761ZM3.455,18.61a10.779,10.779,0,0,1-2.146-6.466q0-.149,0-.3l2.467-1.794,3.488,1.133,1.445,4.441L6.539,18.619ZM15.631,22.4a10.84,10.84,0,0,1-7.076-.035L7.59,19.4l2.182-3h4.621L16.6,19.432Zm2.036-3.725-2.131-2.934L17,11.231,20.473,10.1l2.5,1.822c0,.072,0,.145,0,.218a10.779,10.779,0,0,1-2.2,6.539Z" transform="translate(0 0)"/>
    </g>
  </g>
</svg>
