<svg xmlns="http://www.w3.org/2000/svg" viewBox="3072.691 -1839.5 47.972 66.734">
  <defs>
    <style>
      .cls-1 {
        fill: none;
      }

      .cls-2, .cls-4 {
        fill: #0ccbba;
      }

      .cls-2 {
        stroke: #0ccbba;
      }

      .cls-3, .cls-4 {
        stroke: none;
      }
    </style>
  </defs>
  <g id="Group_246" data-name="Group 246" transform="translate(3017 -2759)">
    <g id="Group_244" data-name="Group 244" transform="translate(0.191 613)">
      <g id="Path_67" data-name="Path 67" class="cls-1" transform="translate(55.5 373.234) rotate(-90)">
        <path class="cls-3" d="M11.122,0h44.49c6.143,0,11.122,4.669,11.122,10.429V37.543c0,5.76-4.98,10.429-11.122,10.429H11.122C4.98,47.972,0,43.3,0,37.543V10.429C0,4.669,4.98,0,11.122,0Z"/>
        <path class="cls-4" d="M 55.61199951171875 43.97162628173828 C 59.53929901123047 43.97162628173828 62.73439788818359 41.08776473999023 62.73439788818359 37.54301452636719 L 62.73439788818359 10.42861461639404 C 62.73439788818359 6.883864879608154 59.53929901123047 4.000002384185791 55.61199951171875 4.000002384185791 L 11.12239933013916 4.000002384185791 C 7.195098876953125 4.000002384185791 3.999999046325684 6.883864879608154 3.999999046325684 10.42861461639404 L 3.999999046325684 37.54301452636719 C 3.999999046325684 41.08776473999023 7.195098876953125 43.97162628173828 11.12239933013916 43.97162628173828 L 55.61199951171875 43.97162628173828 M 55.61199951171875 47.97162628173828 L 11.12239933013916 47.97162628173828 C 4.979673862457275 47.97162628173828 -1.055908228408953e-06 43.30257797241211 -1.055908228408953e-06 37.54301452636719 L -1.055908228408953e-06 10.42861461639404 C -1.055908228408953e-06 4.669052600860596 4.979673862457275 2.548217707953881e-06 11.12239933013916 2.548217707953881e-06 L 55.61199951171875 2.548217707953881e-06 C 61.75472259521484 2.548217707953881e-06 66.73439788818359 4.669052600860596 66.73439788818359 10.42861461639404 L 66.73439788818359 37.54301452636719 C 66.73439788818359 43.30257797241211 61.75472259521484 47.97162628173828 55.61199951171875 47.97162628173828 Z"/>
      </g>
    </g>
    <g id="star_4_" data-name="star (4)" transform="translate(66.938 929.489)">
      <path id="Path_219" data-name="Path 219" class="cls-2" d="M25.311,20.156a.707.707,0,0,0-.567-.479l-7.907-1.124L13.279,11.4a.705.705,0,0,0-.629-.39h0a.7.7,0,0,0-.629.4L8.508,18.58.6,19.756a.707.707,0,0,0-.567.479.7.7,0,0,0,.182.718l5.738,5.561L4.628,34.389a.706.706,0,0,0,.692.822.668.668,0,0,0,.328-.083l7.059-3.74,7.08,3.7a.718.718,0,0,0,.323.078h0a.706.706,0,0,0,.7-.7.549.549,0,0,0-.021-.161l-1.368-7.829,5.7-5.592A.688.688,0,0,0,25.311,20.156Zm-7.127,5.571a.694.694,0,0,0-.2.624l1.191,6.83-6.149-3.21a.711.711,0,0,0-.655,0L6.245,33.219,7.4,26.378a.7.7,0,0,0-.2-.619L2.219,20.931l6.862-1.02a.7.7,0,0,0,.525-.385L12.654,13.3l3.09,6.211a.715.715,0,0,0,.531.385l6.867.978Z" transform="translate(0)"/>
    </g>
  </g>
</svg>
