<svg xmlns="http://www.w3.org/2000/svg" viewBox="3065.691 -2193 66.472 81">
  <defs>
    <style>
      .cls-1 {
        fill: none;
      }

      .cls-2 {
        fill: #fff;
      }

      .cls-3, .cls-5 {
        fill: #0ccbba;
      }

      .cls-4, .cls-5 {
        stroke: none;
      }
    </style>
  </defs>
  <g id="Group_245" data-name="Group 245" transform="translate(3017 -2759)">
    <g id="Group_243" data-name="Group 243" transform="translate(17.5 272.87)">
      <g id="Path_67" data-name="Path 67" class="cls-1" transform="translate(55.5 361.495) rotate(-90)">
        <path class="cls-4" d="M9.166,0H45.829A9.166,9.166,0,0,1,55,9.166V33a9.166,9.166,0,0,1-9.166,9.166H9.166A9.166,9.166,0,0,1,0,33V9.166A9.166,9.166,0,0,1,9.166,0Z"/>
        <path class="cls-5" d="M 45.82939147949219 38.16304397583008 C 48.67787170410156 38.16304397583008 50.99526977539063 35.84564208984375 50.99526977539063 32.99716567993164 L 50.99526977539063 9.165875434875488 C 50.99526977539063 6.317398071289063 48.67787170410156 3.999997854232788 45.82939147949219 3.999997854232788 L 9.165881156921387 3.999997854232788 C 6.317403316497803 3.999997854232788 4.000003337860107 6.317398071289063 4.000003337860107 9.165875434875488 L 4.000003337860107 32.99716567993164 C 4.000003337860107 35.84564208984375 6.317403316497803 38.16304397583008 9.165881156921387 38.16304397583008 L 45.82939147949219 38.16304397583008 M 45.82939147949219 42.16304397583008 L 9.165881156921387 42.16304397583008 C 4.103703498840332 42.16304397583008 3.461710548435804e-06 38.05934143066406 3.461710548435804e-06 32.99716567993164 L 3.461710548435804e-06 9.165875434875488 C 3.461710548435804e-06 4.103697776794434 4.103703498840332 -2.141655841114698e-06 9.165881156921387 -2.141655841114698e-06 L 45.82939147949219 -2.141655841114698e-06 C 50.89157104492188 -2.141655841114698e-06 54.99526977539063 4.103697776794434 54.99526977539063 9.165875434875488 L 54.99526977539063 32.99716567993164 C 54.99526977539063 38.05934143066406 50.89157104492188 42.16304397583008 45.82939147949219 42.16304397583008 Z"/>
      </g>
    </g>
    <rect id="Rectangle_130" data-name="Rectangle 130" class="cls-2" width="45" height="81" transform="translate(57 566)"/>
    <g id="Group_242" data-name="Group 242" transform="translate(-6.809 267)">
      <g id="Path_67-2" data-name="Path 67" class="cls-1" transform="translate(55.5 373.234) rotate(-90)">
        <path class="cls-4" d="M11.122,0h44.49c6.143,0,11.122,4.669,11.122,10.429V37.543c0,5.76-4.98,10.429-11.122,10.429H11.122C4.98,47.972,0,43.3,0,37.543V10.429C0,4.669,4.98,0,11.122,0Z"/>
        <path class="cls-5" d="M 55.61199951171875 43.97162628173828 C 59.53929901123047 43.97162628173828 62.73439788818359 41.08776473999023 62.73439788818359 37.54301452636719 L 62.73439788818359 10.42861461639404 C 62.73439788818359 6.883864879608154 59.53929901123047 4.000002384185791 55.61199951171875 4.000002384185791 L 11.12239933013916 4.000002384185791 C 7.195098876953125 4.000002384185791 3.999999046325684 6.883864879608154 3.999999046325684 10.42861461639404 L 3.999999046325684 37.54301452636719 C 3.999999046325684 41.08776473999023 7.195098876953125 43.97162628173828 11.12239933013916 43.97162628173828 L 55.61199951171875 43.97162628173828 M 55.61199951171875 47.97162628173828 L 11.12239933013916 47.97162628173828 C 4.979673862457275 47.97162628173828 -1.055908228408953e-06 43.30257797241211 -1.055908228408953e-06 37.54301452636719 L -1.055908228408953e-06 10.42861461639404 C -1.055908228408953e-06 4.669052600860596 4.979673862457275 2.548217707953881e-06 11.12239933013916 2.548217707953881e-06 L 55.61199951171875 2.548217707953881e-06 C 61.75472259521484 2.548217707953881e-06 66.73439788818359 4.669052600860596 66.73439788818359 10.42861461639404 L 66.73439788818359 37.54301452636719 C 66.73439788818359 43.30257797241211 61.75472259521484 47.97162628173828 55.61199951171875 47.97162628173828 Z"/>
      </g>
    </g>
    <rect id="Rectangle_131" data-name="Rectangle 131" class="cls-3" width="16" height="4" rx="2" transform="translate(59 584)"/>
    <rect id="Rectangle_132" data-name="Rectangle 132" class="cls-3" width="8" height="8" rx="2" transform="translate(69 619)"/>
  </g>
</svg>
