<svg xmlns="http://www.w3.org/2000/svg" viewBox="0 0 28.428 24.441">
  <defs>
    <style>
      .cls-1 {
        fill: #0ccbba;
      }
    </style>
  </defs>
  <g id="paw" transform="translate(-0.001 -35.905)">
    <g id="Group_252" data-name="Group 252" transform="translate(4.662 46.488)">
      <g id="Group_251" data-name="Group 251">
        <path id="Path_234" data-name="Path 234" class="cls-1" d="M100.306,230.077a8.261,8.261,0,0,0-13.616,0,11.48,11.48,0,0,0-2.746,7,3.126,3.126,0,0,0,1.018,2.536,3.834,3.834,0,0,0,2.529.743,19.4,19.4,0,0,0,3.345-.422,16.464,16.464,0,0,1,2.662-.355,15.5,15.5,0,0,1,2.442.337c2.183.405,4.657.865,6.087-.324a3.1,3.1,0,0,0,1.024-2.516A11.479,11.479,0,0,0,100.306,230.077Zm.657,8.233c-.829.689-2.985.289-4.718-.033a16.4,16.4,0,0,0-2.746-.365,17.471,17.471,0,0,0-2.963.383c-1.662.3-3.73.684-4.507.037-.1-.086-.418-.349-.418-1.257a9.915,9.915,0,0,1,2.363-5.936,6.614,6.614,0,0,1,11.05,0,9.915,9.915,0,0,1,2.363,5.936C101.386,237.958,101.067,238.223,100.963,238.31Z" transform="translate(-83.945 -226.496)"/>
      </g>
    </g>
    <g id="Group_254" data-name="Group 254" transform="translate(14.723 35.905)">
      <g id="Group_253" data-name="Group 253" transform="translate(0 0)">
        <path id="Path_235" data-name="Path 235" class="cls-1" d="M271.637,37.53a3.14,3.14,0,0,0-5.5,0,6.66,6.66,0,0,0,0,7.01,3.14,3.14,0,0,0,5.5,0,6.66,6.66,0,0,0,0-7.01Zm-1.379,6.075a1.5,1.5,0,0,1-2.742,0,5.008,5.008,0,0,1,0-5.14,1.5,1.5,0,0,1,2.742,0,5.008,5.008,0,0,1,0,5.14Z" transform="translate(-265.141 -35.907)"/>
      </g>
    </g>
    <g id="Group_256" data-name="Group 256" transform="translate(6.215 35.905)">
      <g id="Group_255" data-name="Group 255" transform="translate(0 0)">
        <path id="Path_236" data-name="Path 236" class="cls-1" d="M118.412,37.529a3.14,3.14,0,0,0-5.5,0,6.66,6.66,0,0,0,0,7.01,3.14,3.14,0,0,0,5.5,0,6.66,6.66,0,0,0,0-7.01ZM117.033,43.6a1.5,1.5,0,0,1-2.742,0,5.008,5.008,0,0,1,0-5.14,1.5,1.5,0,0,1,2.742,0,5.008,5.008,0,0,1,0,5.14Z" transform="translate(-111.916 -35.905)"/>
      </g>
    </g>
    <g id="Group_258" data-name="Group 258" transform="translate(22.063 43.457)">
      <g id="Group_257" data-name="Group 257" transform="translate(0 0)">
        <path id="Path_237" data-name="Path 237" class="cls-1" d="M403.55,174.034a2.86,2.86,0,0,0-1.7-1.963,2.676,2.676,0,0,0-2.087.118,4.294,4.294,0,0,0-2.13,2.518,4.643,4.643,0,0,0-.116,2.811,2.86,2.86,0,0,0,1.7,1.963,2.5,2.5,0,0,0,.883.159,2.842,2.842,0,0,0,1.2-.277,4.294,4.294,0,0,0,2.13-2.518h0A4.642,4.642,0,0,0,403.55,174.034Zm-1.688,2.261a2.671,2.671,0,0,1-1.263,1.558,1.033,1.033,0,0,1-.8.067c-.721-.271-1-1.517-.6-2.666a2.671,2.671,0,0,1,1.263-1.558,1.193,1.193,0,0,1,.5-.12.843.843,0,0,1,.3.053C401.983,173.9,402.263,175.147,401.862,176.3Z" transform="translate(-397.35 -171.912)"/>
      </g>
    </g>
    <g id="Group_260" data-name="Group 260" transform="translate(0.001 43.457)">
      <g id="Group_259" data-name="Group 259" transform="translate(0 0)">
        <path id="Path_238" data-name="Path 238" class="cls-1" d="M6.086,174.706a4.294,4.294,0,0,0-2.13-2.518,2.676,2.676,0,0,0-2.087-.118,2.861,2.861,0,0,0-1.7,1.963,4.642,4.642,0,0,0,.116,2.811h0a4.294,4.294,0,0,0,2.13,2.518,2.842,2.842,0,0,0,1.2.277,2.506,2.506,0,0,0,.883-.159,2.86,2.86,0,0,0,1.7-1.963A4.644,4.644,0,0,0,6.086,174.706Zm-2.173,3.215a1.033,1.033,0,0,1-.8-.067A2.671,2.671,0,0,1,1.855,176.3h0c-.4-1.149-.121-2.395.6-2.666a1.033,1.033,0,0,1,.8.067,2.671,2.671,0,0,1,1.263,1.558C4.914,176.4,4.634,177.65,3.913,177.921Z" transform="translate(-0.001 -171.912)"/>
      </g>
    </g>
  </g>
</svg>
