<svg xmlns="http://www.w3.org/2000/svg" viewBox="815.5 3171.5 28.534 32.167">
  <defs>
    <style>
      .cls-1, .cls-4 {
        fill: none;
      }

      .cls-2, .cls-6 {
        fill: #25b2a4;
      }

      .cls-2 {
        font-size: 13px;
        font-family: SofiaPro-Black, Sofia Pro;
        font-weight: 800;
      }

      .cls-3 {
        fill: #fff;
      }

      .cls-4 {
        stroke: #25b2a4;
        stroke-width: 2px;
      }

      .cls-5, .cls-6 {
        stroke: none;
      }
    </style>
  </defs>
  <g id="Group_207" data-name="Group 207" transform="translate(586 2812)">
    <g id="Group_20" data-name="Group 20" transform="translate(174 53)">
      <g id="Path_67" data-name="Path 67" class="cls-1" transform="translate(55.5 336.5) rotate(-90)">
        <path class="cls-5" d="M5,0H25a5,5,0,0,1,5,5V18a5,5,0,0,1-5,5H5a5,5,0,0,1-5-5V5A5,5,0,0,1,5,0Z"/>
        <path class="cls-6" d="M 25 21 C 26.65420913696289 21 28 19.65420913696289 28 18 L 28 5 C 28 3.345789909362793 26.65420913696289 2 25 2 L 5 2 C 3.345789909362793 2 2 3.345789909362793 2 5 L 2 18 C 2 19.65420913696289 3.345789909362793 21 5 21 L 25 21 M 25 23 L 5 23 C 2.238579988479614 23 -1.77635683940025e-15 20.76141929626465 -1.77635683940025e-15 18 L -1.77635683940025e-15 5 C -1.77635683940025e-15 2.238579988479614 2.238579988479614 -1.77635683940025e-15 5 -1.77635683940025e-15 L 25 -1.77635683940025e-15 C 27.76141929626465 -1.77635683940025e-15 30 2.238579988479614 30 5 L 30 18 C 30 20.76141929626465 27.76141929626465 23 25 23 Z"/>
      </g>
      <text id="_" data-name="$" class="cls-2" transform="translate(63 327)"><tspan x="0" y="0">$</tspan></text>
      <path id="Path_68" data-name="Path 68" class="cls-3" d="M0,0H9V14.667H0Z" transform="translate(71 324)"/>
    </g>
    <path id="Path_69" data-name="Path 69" class="cls-4" d="M535.333,2595.333l3.5,4.608-3.5,4.1" transform="translate(-287 -2215)"/>
    <path id="Path_70" data-name="Path 70" class="cls-4" d="M535.333,2595.333l3.5,4.608-3.5,4.1" transform="translate(-282.081 -2215)"/>
  </g>
</svg>
