<?xml version="1.0" encoding="iso-8859-1"?>
<!-- Generator: Adobe Illustrator 19.0.0, SVG Export Plug-In . SVG Version: 6.00 Build 0)  -->
<svg xmlns="http://www.w3.org/2000/svg" xmlns:xlink="http://www.w3.org/1999/xlink" version="1.1" id="Capa_1" x="0px" y="0px" viewBox="0 0 512.001 512.001" style="enable-background:new 0 0 512.001 512.001;" xml:space="preserve" width="512px" height="512px">
<g>
	<g>
		<g>
			<path d="M437.46,0.008h-42.406C395.002,0.008,394.953,0,394.9,0h-42.783c-0.053,0-0.103,0.008-0.155,0.008h-235.14     c-5.523,0-10,4.478-10,10v449.211c0,5.523,4.477,10,10,10h32.783V502c0,3.467,1.795,6.684,4.742,8.506     c2.947,1.822,6.629,1.988,9.729,0.44l16.922-8.459l16.922,8.459c1.412,0.705,2.943,1.055,4.471,1.055     c1.829,0,3.652-0.5,5.259-1.494c2.948-1.822,4.742-5.039,4.742-8.506V469.22h139.726H394.9h42.561     c26.313,0,47.719-21.406,47.719-47.719V47.727C485.179,21.414,463.773,0.008,437.46,0.008z M180.997,481.306     c-1.531,0-3.063,0.352-4.471,1.057l-6.922,3.459v-16.604h22.786v16.604l-6.921-3.458     C184.062,481.658,182.53,481.306,180.997,481.306z M342.117,449.218H202.391h-42.786h-32.783V319.482h22.789v70.479     c0,5.521,4.478,10,10,10c5.523,0,10-4.479,10-10v-70.479h172.506V449.218z M342.117,299.482H126.822V169.744h215.295V299.482z      M342.117,149.744H169.605V79.035c0-5.523-4.477-10-10-10c-5.523,0-10,4.477-10,10v70.709h-22.783V20.008h215.295V149.744z      M384.9,449.219h-22.783V20.008H384.9V449.219z M465.179,421.5c0,15.285-12.434,27.719-27.719,27.719H404.9V319.482h60.279V421.5     z M465.179,299.482H404.9V169.744h60.279V299.482z M465.179,149.745H404.9V20.008h32.561c15.284,0,27.718,12.435,27.718,27.719     V149.745z" fill="#00d1b2"/>
			<path d="M159.605,409.75c-5.523,0-10,4.477-10,10v0.252c0,5.523,4.477,10,10,10c5.523,0,10-4.477,10-10v-0.252     C169.605,414.227,165.128,409.75,159.605,409.75z" fill="#00d1b2"/>
			<path d="M159.605,59.477c5.523,0,10-4.477,10-10v-0.256c0-5.521-4.477-10-10-10c-5.523,0-10,4.479-10,10v0.256     C149.605,55,154.082,59.477,159.605,59.477z" fill="#00d1b2"/>
			<path d="M65.766,5.535c-1.694-3.387-5.157-5.527-8.944-5.527c-3.787,0-7.25,2.141-8.944,5.529L27.877,45.539     c-0.694,1.387-1.056,2.918-1.056,4.471v409.209c0,5.523,4.477,10,10,10h40.003c5.522,0,10-4.477,10-10V50.01     c0-1.553-0.361-3.084-1.057-4.473L65.766,5.535z M66.824,449.219H46.821V72.555h20.003V449.219z M66.824,52.555H46.821v-0.184     l10.001-20.002l10.002,20.002V52.555z" fill="#00d1b2"/>
		</g>
	</g>
</g>
<g>
</g>
<g>
</g>
<g>
</g>
<g>
</g>
<g>
</g>
<g>
</g>
<g>
</g>
<g>
</g>
<g>
</g>
<g>
</g>
<g>
</g>
<g>
</g>
<g>
</g>
<g>
</g>
<g>
</g>
</svg>
