<svg xmlns="http://www.w3.org/2000/svg" viewBox="3065.786 -2024.465 60.979 76.93">
  <defs>
    <style>
      .cls-1 {
        fill: #0ccbba;
      }
    </style>
  </defs>
  <g id="clover" transform="translate(3017.063 -2024.465)">
    <path id="Path_218" data-name="Path 218" class="cls-1" d="M109.519,22.806c.674-3.277-.506-6.153-3.41-8.316a8.168,8.168,0,0,0-4.984-1.634A13.257,13.257,0,0,0,95.3,14.4c2.106-4.276,2.084-7.89-.082-10.8A7.971,7.971,0,0,0,88.67,0c-3.257,0-6.259,2-8.246,3.32-.41.273-.894.6-1.211.776-.317-.181-.8-.5-1.211-.776C76.016,2,73.014,0,69.757,0a7.971,7.971,0,0,0-6.545,3.6c-2.166,2.909-2.188,6.523-.082,10.8a13.255,13.255,0,0,0-5.827-1.54,8.169,8.169,0,0,0-4.984,1.634c-2.9,2.163-4.084,5.038-3.41,8.316a19.039,19.039,0,0,0,3.133,6.474c.273.41.6.894.776,1.211-.181.317-.5.8-.776,1.211a19.041,19.041,0,0,0-3.133,6.475c-.674,3.278.506,6.153,3.41,8.316A8.171,8.171,0,0,0,57.3,48.127h0a13.256,13.256,0,0,0,5.826-1.54c-2.106,4.276-2.083,7.89.082,10.8a7.971,7.971,0,0,0,6.545,3.6c3.033,0,5.844-1.731,7.82-3.037V76.93H80.85V57.947c1.976,1.306,4.787,3.037,7.82,3.037a7.971,7.971,0,0,0,6.545-3.6c2.166-2.909,2.188-6.523.082-10.8a13.254,13.254,0,0,0,5.827,1.54,8.168,8.168,0,0,0,4.984-1.634c2.9-2.163,4.084-5.038,3.41-8.316a19.04,19.04,0,0,0-3.133-6.475c-.273-.41-.6-.894-.776-1.211.181-.317.5-.8.776-1.211a19.034,19.034,0,0,0,3.133-6.475Zm-5.858,10.711c2.609,3.921,4.448,7.406.493,10.35a4.9,4.9,0,0,1-3.029.986c-3.1,0-7.173-2.309-12.094-6.862-1.526-1.643-2.968-3.032-4.023-4.048-.39-.376-.727-.7-.98-.953l-2.315,2.315c.253.253.578.59.954.981,1.016,1.055,2.4,2.5,4.047,4.022a33.019,33.019,0,0,1,5.841,8.109c1.351,2.937,1.362,5.231.035,7.014a4.814,4.814,0,0,1-3.919,2.278c-2.267,0-4.674-1.6-6.432-2.771-1.33-.885-2.133-1.419-3.025-1.419s-1.695.534-3.025,1.419c-1.757,1.17-4.164,2.771-6.432,2.771a4.814,4.814,0,0,1-3.919-2.278c-1.328-1.783-1.316-4.078.034-7.014a33.009,33.009,0,0,1,5.841-8.109c1.643-1.526,3.031-2.967,4.047-4.022.377-.391.7-.729.954-.981L74.4,32.991c-.252.252-.589.577-.98.953-1.056,1.017-2.5,2.406-4.024,4.049-4.921,4.553-8.989,6.861-12.092,6.861h0a4.9,4.9,0,0,1-3.03-.986c-3.955-2.944-2.116-6.43.493-10.351.885-1.33,1.419-2.133,1.419-3.025s-.534-1.695-1.419-3.025c-2.61-3.921-4.448-7.406-.493-10.351A4.9,4.9,0,0,1,57.3,16.13c3.1,0,7.173,2.309,12.094,6.861,1.526,1.643,2.967,3.031,4.023,4.048.391.376.728.7.98.954l2.315-2.315c-.252-.252-.577-.59-.954-.98-1.016-1.055-2.405-2.5-4.048-4.023a33.02,33.02,0,0,1-5.841-8.109c-1.351-2.936-1.362-5.231-.034-7.014a4.814,4.814,0,0,1,3.919-2.278c2.267,0,4.674,1.6,6.432,2.771,1.33.885,2.133,1.419,3.025,1.419s1.695-.534,3.025-1.419C84,4.875,86.4,3.274,88.67,3.274a4.814,4.814,0,0,1,3.919,2.278c1.328,1.783,1.316,4.078-.034,7.014a33.014,33.014,0,0,1-5.841,8.109c-1.643,1.526-3.031,2.967-4.048,4.022-.376.391-.7.728-.954.981l2.315,2.315c.252-.252.59-.577.98-.954,1.055-1.017,2.5-2.405,4.023-4.048,4.921-4.553,8.99-6.861,12.094-6.861a4.9,4.9,0,0,1,3.029.986c3.955,2.944,2.117,6.43-.493,10.351-.885,1.33-1.419,2.133-1.419,3.025s.534,1.7,1.419,3.025Z"/>
  </g>
</svg>
